<?xml version="1.0" encoding="UTF-8"?>
<svg width="100px" height="102px" viewBox="0 0 100 102" version="1.1" xmlns="http://www.w3.org/2000/svg" xmlns:xlink="http://www.w3.org/1999/xlink">
    <!-- Generator: Sketch 42 (36781) - http://www.bohemiancoding.com/sketch -->
    <title>bc-symbol</title>
    <desc>Created with Sketch.</desc>
    <defs></defs>
    <g id="Website" stroke="none" stroke-width="1" fill="none" fill-rule="evenodd">
        <g id="Swiss" transform="translate(-37.000000, -54.000000)">
            <g id="bc-symbol" transform="translate(37.000000, 54.000000)">
                <g>
                    <g id="bottom" transform="translate(0.000000, 27.000000)">
                        <polygon id="base" fill="#1571F5" points="0 45 0 30 50 0 100 30 100 45 50 75"></polygon>
                        <polygon id="Rectangle-4" fill="#5154FF" points="50 0 100 30 50 60 0 30"></polygon>
                        <polygon id="Rectangle-3" fill="#4649F6" points="0 30 50 60 50 75 0 45"></polygon>
                        <polygon id="Rectangle-3-Copy" fill="#2A2DD2" transform="translate(75.000000, 52.500000) scale(-1, 1) translate(-75.000000, -52.500000) " points="50 30 100 60 100 75 50 45"></polygon>
                    </g>
                    <g id="top">
                        <polygon id="base" fill="#F1F7FF" points="0 44 0 30 50 0 100 30 100 44 50 74"></polygon>
                        <polygon id="Rectangle-3" fill="#AAA6FF" points="0 30 50 60 50 75 0 45"></polygon>
                        <polygon id="Rectangle-3-Copy" fill="#7976FF" transform="translate(75.000000, 52.500000) scale(-1, 1) translate(-75.000000, -52.500000) " points="50 30 100 60 100 75 50 45"></polygon>
                        <polygon id="Rectangle-4" fill="#F2F7FF" points="50 1 100 30 50 60 0 30"></polygon>
                        <polygon id="Rectangle-4-Copy" fill="#F3F2FF" points="50 0 100 30 50 60 0 30"></polygon>
                    </g>
                </g>
            </g>
        </g>
    </g>
</svg>