<svg class="template-preview-svg" width="196" height="339" viewBox="0 0 196 339" xmlns="http://www.w3.org/2000/svg" xmlns:xlink="http://www.w3.org/1999/xlink">
  <defs>
    <path id="a" d="M0 0h196v339H0z"/>
    <mask id="f" x="0" y="0" width="196" height="339" fill="#fff">
      <use xlink:href="#a"/>
    </mask>
    <path id="b" d="M42 0h40v12H42z"/>
    <mask id="g" x="0" y="0" width="40" height="12" fill="#fff">
      <use xlink:href="#b"/>
    </mask>
    <path id="c" d="M42 0h40v12H42z"/>
    <mask id="h" x="0" y="0" width="40" height="12" fill="#fff">
      <use xlink:href="#c"/>
    </mask>
    <path id="d" d="M24 182h70v36H24z"/>
    <mask id="i" x="0" y="0" width="70" height="36" fill="#fff">
      <use xlink:href="#d"/>
    </mask>
    <path id="e" d="M102 126h70v36h-70z"/>
    <mask id="j" x="0" y="0" width="70" height="36" fill="#fff">
      <use xlink:href="#e"/>
    </mask>
  </defs>
  <g fill="none" fill-rule="evenodd">
    <use mask="url(#f)" stroke-width="8" xlink:href="#a"/>
    <path d="M24 312h70v3H24v-3zm78 0h70v3h-70v-3zm-78 5h70v3H24v-3zm78 0h70v3h-70v-3z" opacity=".5"/>
    <path opacity=".3" d="M4 246h188v48H4zM4 4h188v100H4z"/>
    <path d="M38 42h120v6H38zM38 32h120v6H38z"/>
    <g transform="translate(57 271)">
      <path d="M0 0h40v12H0z"/>
      <use mask="url(#g)" stroke-width="4" xlink:href="#b"/>
    </g>
    <g transform="translate(57 67)">
      <path d="M0 0h40v12H0z"/>
      <use mask="url(#h)" stroke-width="4" xlink:href="#c"/>
    </g>
    <path d="M36 259h124v6H36z"/>
    <use mask="url(#i)" stroke-width="4" fill-opacity=".3" xlink:href="#d"/>
    <path d="M102 182h70v6h-70v-6zm0 10h70v6h-70v-6zm0 10h70v6h-70v-6zm0 10h50v6h-50v-6z"/>
    <use mask="url(#j)" stroke-width="4" fill-opacity=".3" xlink:href="#e"/>
    <path d="M24 126h70v6H24v-6zm0 10h70v6H24v-6zm0 10h70v6H24v-6zm0 10h50v6H24v-6z"/>
  </g>
</svg>
