<svg class="template-preview-svg" xmlns="http://www.w3.org/2000/svg" width="196" height="258" viewBox="0 0 196 258">
  <path class="st0" d="M192 4v250H4V4h188m4-4H0v258h196V0z"/>
  <path class="st0" d="M112 77h70v6h-70zM112 87h50v6h-50zM112 67h70v6h-70zM112 57h70v6h-70zM112 137h50v6h-50zM112 127h70v6h-70zM112 107h70v6h-70zM112 117h70v6h-70z"/>
  <path class="st1" d="M114 15h66v32h-66z"/>
  <path class="st0" d="M180 15v32h-66V15h66m2-2h-70v36h70V13z"/>
  <path class="st0" d="M112 230h50v6h-50zM112 220h70v6h-70z"/>
  <path class="st1" d="M114 178h66v32h-66z"/>
  <path class="st0" d="M180 178v32h-66v-32h66m2-2h-70v36h70v-36z"/>
  <path id="img" class="st2" d="M4 4h96v250H4z"/>
</svg>
